<?xml version="1.0" encoding="UTF-8"?>
<svg id="Layer_1" data-name="Layer 1" xmlns="http://www.w3.org/2000/svg" viewBox="0 0 116.41 108.42">
  <defs>
    <style>
      .cls-1 {
        fill: none;
        stroke: #231f20;
        stroke-miterlimit: 10;
      }
    </style>
  </defs>
  <path class="cls-1" d="M115.92,58.67l-16.45,7.73c-15.15,11.71-30.57,14.25-37.32,8.09-1.37-1.25-3.29-3.69-3.96-8.56-4.39-7.39-10.39-12.39-14.39-19.39-1.91-1.74-4.76-4.29-8.36-7.22-4.55-3.71-8.09-6.25-9.51-7.28-4.64-3.35-11.83-8.69-23.12-17.5-1-1-4-4-1-5C9.8,5.54,16.8,1.54,25.8,.54c4.2,9.22,10.25,20.37,19,32,7.14,9.49,14.41,17.1,20.87,23.05,0,0,1.52,.04,3.78,.05,6.02,.02,17.25-.19,18.63-2.03,.93-1.24,3.09-6.32,6.02-10.47,3.03-4.29,6.88-7.6,11.06-4.71,8.22,5.69,10.75,20.24,10.75,20.24"/>
  <path class="cls-1" d="M58.19,65.92l-25.6,19.59s-29.2,6.55-28.32,9.48,8.81,12.92,9.69,12.92,19.34-15.09,19.34-15.09l28.85-18.35"/>
  <path class="cls-1" d="M43.36,30.59c-2.95,5.14-4.78,5.51-4.78,5.51,0,0-4.45,2.15-5.28,1.5"/>
  <polyline class="cls-1" points="69.45 55.64 81.49 48.9 94.11 43.13"/>
  <path class="cls-1" d="M32.59,85.52l3.1,2.73s2.39,1.54,0,3.06"/>
</svg>