  <?xml version="1.0" encoding="UTF-8"?>
  <svg id="Layer_1" data-name="Layer 1" xmlns="http://www.w3.org/2000/svg" viewBox="0 0 128.58 63.71">
    <defs>
      <style>
        .cls-1 {
          fill: none;
          stroke: #231f20;
          stroke-miterlimit: 10;
        }
      </style>
    </defs>
    <path class="cls-1" d="M117.71,28.18c-6,3-9,11-15,14-.1,.04-.2,.08-.3,.12l-4.3-.43,4.08,.4,.22,.02c-4.86,1.96-8.8,3.92-13.7,5.88-7.86,3.28-16.16,.97-24.32-1.57l-5.5-3.8-6.49-5.43,5.44,5.06,5,3.69c-3.77-1.18-7.5-2.34-11.13-2.94-11-8-23-13-35-18-5,6-9,14-14.95,19.72-.05,.28-1.05,1.28-1.05,1.28,1,1,2,3,4,3,13,2,25,2,38,2,6,1,11,2,17,4,8,3,15,6,23,8,12-5,23-9,35-15,3-1,6-1,9.05-3.02l1.32-6.99c-.37-5.99-3.37-12.99-10.37-9.99Z"/>
    <path class="cls-1" d="M34.25,.48s-5.58,1.69-8.86,4.98c-3.29,3.29-17.22-1.89-14.14,2.59,3.09,4.48,30.17,27.78,34.85,28.48l4.68,.7,1.62,.16c-.06-1.04,.15-2.09,.63-2.89,1.06-1.76,2.75-2.44,4.53-2.33l-1.71-.81L34.25,.48"/>
    <polyline class="cls-1" points="57.56 32.15 81.64 42.33 98.4 41.94"/>
    <path class="cls-1" d="M42.71,51.18s-2.13-10.94,9-8"/>
  </svg>