<svg id="person1" data-name="Layer 1" xmlns="http://www.w3.org/2000/svg" viewBox="0 0 211.89 109.8">
  <defs>
    <style>
      .cls-1, .cls-2 {
        fill: #231f20;
      }

      .cls-2, .cls-3 {
        stroke: #231f20;
        stroke-miterlimit: 10;
      }

      .cls-3 {
        fill: none;
      }
    </style>
  </defs>
  <g>
    <path class="cls-1" d="M128.97,74l9.04-1.13-9.04,1.13Z"/>
    <path class="cls-3" d="M128.97,74l9.04-1.13-9.04,1.13Z"/>
  </g>
  <g>
    <path class="cls-1" d="M138.01,72.87l18.17-25.68-30.41,10.43,3.19,16.38-48.26,19.54-35.69-12.84s-51.03,1.57-43.83-5.95,13.77-18.58,14.56-19.85,36,16.24,36,17.97,27.55,7.52,30.37,6.89,20.82-9.41,22.38-9.4,10.64-12.2,13.46-12.2,4.84-.63,4.84-.63l2.95,1.34,11.85,13.78"/>
    <path class="cls-3" d="M138.01,72.87l18.17-25.68-30.41,10.43,3.19,16.38-48.26,19.54-35.69-12.84s-51.03,1.57-43.83-5.95,13.77-18.58,14.56-19.85,36,16.24,36,17.97,27.55,7.52,30.37,6.89,20.82-9.41,22.38-9.4,10.64-12.2,13.46-12.2,4.84-.63,4.84-.63l2.95,1.34,11.85,13.78"/>
  </g>
  <g>
    <path class="cls-1" d="M117.96,58.16l-3.81-13.89,44.75-13.18s-2.7,5.3-6.2,12.15c-5.58,10.92-13.19,25.79-15.1,29.42-1.42,2.7-2.52,4.73-3.09,5.7-3.34,5.66-7.72,18.31-7.72,18.31-.3,.21-.71,.51-1.16,.93-.44,.41-1.67,1.57-2.32,3.25-.82,2.1-.51,4.46-.12,4.52,.47,.07,1.15-3.09,1.51-3.01,.5,.1-.4,6.21-.12,6.26,.28,.05,1.39-5.85,1.74-5.8,.34,.05-.29,5.76,0,5.8,.28,.04,1.06-5.26,1.51-5.22,.46,.04,.04,5.84,.58,5.91,.31,.04,.92-1.86,1.97-6.95,.3,2.72,.71,4.1,1.23,4.14,.7,.06,1.6-2.23,2.7-6.88,0,0,18.43-21.62,19.41-21.62s13.27-6.39,16.22-9.34c2.95-2.95,5.65-7.81,5.65-7.81,0,0,2.26-2.57,6.57-.41,4.31,2.15,7-4.85,7-4.85,3.17-1.27,10.69-4.78,16.16-12.93,2.12-3.16,8.03-11.97,5.39-22.62-2.64-10.65-12.66-18.37-23.16-19.39-1.98-.19-11.59-1.07-18.85,5.92-6.62,6.37-8.58,16.66-4.85,25.85l-2.06,.33-1.57,1.12-1.57,1.23-13.04,15.71"/>
    <path class="cls-3" d="M117.96,58.16l-3.81-13.89,44.75-13.18s-2.7,5.3-6.2,12.15c-5.58,10.92-13.19,25.79-15.1,29.42-1.42,2.7-2.52,4.73-3.09,5.7-3.34,5.66-7.72,18.31-7.72,18.31-.3,.21-.71,.51-1.16,.93-.44,.41-1.67,1.57-2.32,3.25-.82,2.1-.51,4.46-.12,4.52,.47,.07,1.15-3.09,1.51-3.01,.5,.1-.4,6.21-.12,6.26,.28,.05,1.39-5.85,1.74-5.8,.34,.05-.29,5.76,0,5.8,.28,.04,1.06-5.26,1.51-5.22,.46,.04,.04,5.84,.58,5.91,.31,.04,.92-1.86,1.97-6.95,.3,2.72,.71,4.1,1.23,4.14,.7,.06,1.6-2.23,2.7-6.88,0,0,18.43-21.62,19.41-21.62s13.27-6.39,16.22-9.34c2.95-2.95,5.65-7.81,5.65-7.81,0,0,2.26-2.57,6.57-.41,4.31,2.15,7-4.85,7-4.85,3.17-1.27,10.69-4.78,16.16-12.93,2.12-3.16,8.03-11.97,5.39-22.62-2.64-10.65-12.66-18.37-23.16-19.39-1.98-.19-11.59-1.07-18.85,5.92-6.62,6.37-8.58,16.66-4.85,25.85l-2.06,.33-1.57,1.12-1.57,1.23-13.04,15.71"/>
  </g>
  <g>
    <path class="cls-1" d="M82.12,79.76l19.41-8.35-23.19,.74-23.06-10.95-21.61-30.86s-5.58,1.69-8.86,4.98-17.22-1.89-14.14,2.59,30.17,27.78,34.85,28.48l4.68,.7h0"/>
    <path class="cls-3" d="M82.12,79.76l19.41-8.35-23.19,.74-23.06-10.95-21.61-30.86s-5.58,1.69-8.86,4.98-17.22-1.89-14.14,2.59,30.17,27.78,34.85,28.48l4.68,.7h0"/>
  </g>
  <polyline class="cls-2" points="125.78 57.62 149.77 48.97 138.01 72.87 133.49 73.43 128.97 74"/>
</svg>