<?xml version="1.0" encoding="UTF-8"?>
<svg id="Layer_1" data-name="Layer 1" xmlns="http://www.w3.org/2000/svg" viewBox="0 0 62.88 66.73">
  <defs>
    <style>
      .cls-1 {
        fill: none;
        stroke: #231f20;
        stroke-linejoin: round;
      }
    </style>
  </defs>
  <path class="cls-1" d="M58.81,2.79c-.89-.65-1.75-1.36-2.59-2.09-.51,.12-1.08,.16-1.72,.09-1.35-.15-2.71-.23-4.07-.3l-18.18,5.74c-1.29,1.03-16.71,23.39-20.05,29.05-3.34,5.66-7.72,18.31-7.72,18.31-.3,.21-.71,.51-1.16,.93-.44,.41-1.67,1.57-2.32,3.25-.82,2.1-.51,4.46-.12,4.52,.47,.07,1.15-3.09,1.51-3.01,.5,.1-.4,6.21-.12,6.26,.28,.05,1.39-5.85,1.74-5.8,.34,.05-.29,5.76,0,5.8,.28,.04,1.06-5.26,1.51-5.22,.46,.04,.04,5.84,.58,5.91,.31,.04,.92-1.86,1.97-6.95,.3,2.72,.71,4.1,1.23,4.14,.7,.06,1.6-2.23,2.7-6.88,0,0,18.43-21.62,19.41-21.62s13.27-6.39,16.22-9.34c2.95-2.95,5.65-7.81,5.65-7.81,0,0,3.37-2.69,8.02-6.75,.34-.29,.7-.62,1.05-.92-.23-.99-.42-1.99-.59-2.99-.86-1.54-1.8-3.02-2.97-4.32Z"/>
</svg>