<?xml version="1.0" encoding="UTF-8"?>
<svg id="person2" data-name="Layer 1" xmlns="http://www.w3.org/2000/svg" viewBox="0 0 195.41 141.25">
  <defs>
    <style>
      .cls-1 {
        fill: #231f20;
        stroke: #231f20;
        stroke-miterlimit: 10;
      }
    </style>
  </defs>
  <path class="cls-1" d="M194.24,20.03c-2.64-10.65-12.66-18.37-23.16-19.39-1.98-.19-11.59-1.07-18.85,5.92-6.62,6.37-8.58,16.66-4.85,25.85l-2.06,.33-1.57,1.12-1.57,1.23-4.7,5.67c-.41,.79-.83,1.62-1.26,2.47-.93,1.82-1.92,3.76-2.93,5.73l-3.73,1.34,7.92-9.55c2.87-5.61,4.94-9.68,4.94-9.68l-44.75,13.18,3.35,12.2c-2.72-.1-5.68-.02-6.91,1.72,0,0,0,0,0,0h0s-12.62,5.77-12.62,5.77l-12.04,6.73h1.42c-.5,0-.97,0-1.42,0-2.26,0-3.78-.05-3.78-.05-6.46-5.95-13.73-13.56-20.87-23.05-8.75-11.63-14.8-22.78-19-32-9,1-16,5-24,9-3,1,0,4,1,5,11.3,8.81,18.48,14.15,23.12,17.5,1.42,1.03,4.96,3.57,9.51,7.28,3.6,2.93,6.45,5.48,8.36,7.22,4,7,10,12,14.39,19.39,0,0,0,0,0,0h0s-25.6,19.59-25.6,19.59c0,0-29.2,6.55-28.32,9.48,.88,2.94,8.81,12.92,9.69,12.92s19.34-15.09,19.34-15.09l2.39-1.52h0s26.46-16.83,26.46-16.83h0c6.75,6.17,22.17,3.62,37.32-8.09l16.45-7.73s-.01-.06-.03-.16l1.12-.14,4.52-.57,2.34-1.35,2.09-.63,1.24,.35-1.78,31.39c-.2,3.04-.37,5.34-.5,6.46-.74,6.53,.43,19.87,.43,19.87-.19,.31-.44,.76-.68,1.32-.23,.55-.88,2.12-.79,3.91,.11,2.26,1.36,4.28,1.74,4.17,.46-.12-.21-3.28,.15-3.37,.49-.11,2.17,5.84,2.45,5.76,.28-.07-1.12-5.9-.78-6,.34-.09,2.09,5.37,2.37,5.29,.27-.08-1.17-5.23-.75-5.38,.44-.15,2.42,5.32,2.94,5.16,.3-.09,.08-2.07-1.04-7.15,1.38,2.36,2.32,3.45,2.82,3.28,.66-.23,.55-2.69-.34-7.38,0,0,6.6-35.37,7.5-35.77,.9-.4,6.66-21.85,8.15-25.75l10.06-6.22s2.26-2.57,6.57-.41c4.31,2.15,7-4.85,7-4.85,3.17-1.27,10.69-4.78,16.16-12.93,2.12-3.16,8.03-11.97,5.39-22.62Zm-107.86,49.51l1.71-.87,1.09-1.89c-.45,.87-.82,1.54-1.09,1.89-.26,.34-.86,.63-1.71,.87Zm22.92-11.92l.17,.85c-.05-.06-.1-.12-.15-.18-.96-.76-2.07-1.23-3.4-1.31l19.54-5.19-16.16,5.83Z"/>
</svg>