<?xml version="1.0" encoding="UTF-8"?>
<svg id="mask" xmlns="http://www.w3.org/2000/svg" viewBox="0 0 338.8 160.52">
  <defs>
    <style>
      .cls-1 {
        fill: none;
        stroke: #231f20;
        stroke-linecap: round;
        stroke-linejoin: round;
      }
    </style>
  </defs>
  <path class="cls-1" d="M1.18,73.07s44.02-19.38,51.35-21.22,102.71-13.76,105.46-11,15.06-3.67,18.54-6.42,17.51-27.51,17.51-27.51l15.3-6.42s-2.75,22.93,0,27.51,3.67,13.76,3.67,13.76c0,0,89.87,11.92,91.7,8.25s4.86-3.8,4.86-3.8v5.72s7.87,2.62,10.49-.48,3.82-2.86,4.77-8.11S332.72,.2,337.25,3.54s-7.39,72.49-1.67,88.94-12.16-13.83-9.06-15.98-41.01,13.83-43.16,9.54c0,0-4.92,4.46,.05,11.31s-16.55-4.32-16.55-4.32c0,0-24,16.55-41.8,22.35s-31,3.72-31,3.72c0,0,26.45,44.7,28.11,39.73s2.48,9.11-16.14-6.21-34.6-25.66-34.6-25.66c0,0-46.93,5.38-70.93-.41s-53.8-7.45-65.39-21.52l1.66-5.38s-5.79,1.66-9.52-.41S-4.16,82.49,1.18,73.07Z"/>
</svg>