<?xml version="1.0" encoding="UTF-8"?>
<svg id="mask" xmlns="http://www.w3.org/2000/svg" viewBox="0 0 358.03 161.5">
  <defs>
    <style>
      .cls-1 {
        fill: none;
        stroke: #231f20;
        stroke-linecap: round;
        stroke-linejoin: round;
      }
    </style>
  </defs>
  <path class="cls-1" d="M.72,72.37s52.31-23.25,91.06-25.19,77.5-9.69,77.5-9.69l20.67-29.06s15.5-10.98,15.5-7.1-2.58,27.77-2.58,27.77c0,0-2.58,17.44,30.35,20.02s69.75,5.81,69.75,5.81l6.12-4.67s-.25,6.08,1.01,6.59,13.93,3.04,16.72-1.77,24.07-45.85,29.64-41.55-12.67,38.25-9.63,63.59,3.8,29.13,3.8,29.13c0,0-19.76-19.25-20.01-24.07s-48.89,10.89-50.41,11.4,4.05,8.61,4.05,8.61c0,0-16.72-.76-18.49-3.04s-53.9,22.29-65.59,19.76,33.41,43.57,36.2,42.05c0,0-66.88-36.73-65.61-37.49s-36.23,7.85-57.76,4.31-53.45-6.84-58.77-9.12-21.28-14.19-19.51-15.2,3.04-3.29,3.04-3.29l-9.63-1.01S-2.38,83.33,.72,72.37"/>
</svg>