<?xml version="1.0" standalone="no"?>
<!DOCTYPE svg PUBLIC "-//W3C//DTD SVG 20010904//EN"
 "http://www.w3.org/TR/2001/REC-SVG-20010904/DTD/svg10.dtd">
<svg version="1.0" xmlns="http://www.w3.org/2000/svg"
 width="1280.000000pt" height="551.000000pt" viewBox="0 0 1280.000000 551.000000"
 preserveAspectRatio="xMidYMid meet">
<metadata>
Created by potrace 1.15, written by Peter Selinger 2001-2017
</metadata>
<g transform="translate(0.000000,551.000000) scale(0.100000,-0.100000)"
fill="#000000" stroke="none">
<path d="M12122 5334 c-212 -235 -488 -716 -656 -1146 -32 -80 -68 -156 -81
-168 -49 -46 -303 -105 -484 -112 -81 -3 -80 -4 -108 69 -8 22 -9 21 -68 -19
l-59 -41 -236 16 c-239 17 -376 36 -459 64 -72 24 -192 75 -188 79 2 3 17 0
32 -6 27 -10 27 -10 21 22 -4 18 -9 92 -12 163 -5 121 -4 135 20 209 14 43 26
80 26 81 0 2 -10 6 -22 10 -22 7 -22 8 5 12 20 3 27 9 23 19 -3 8 -2 14 2 14
12 0 92 126 92 144 0 20 -4 20 -93 0 -156 -36 -246 -95 -434 -286 -77 -79
-158 -162 -178 -186 l-38 -43 -61 6 c-158 16 -331 63 -511 140 -55 24 -138 56
-185 73 -130 46 -184 73 -330 163 -314 192 -863 430 -902 391 -20 -20 -16
-185 6 -257 28 -93 67 -185 98 -235 16 -24 26 -50 24 -57 -3 -7 -1 -13 4 -13
6 0 10 -7 10 -15 0 -9 6 -12 15 -9 8 4 15 1 15 -6 0 -6 5 -8 10 -5 6 3 10 1
10 -4 0 -6 7 -11 15 -11 8 0 15 -5 15 -11 0 -7 10 -9 25 -5 20 5 26 2 31 -19
5 -20 9 -23 19 -15 10 8 15 6 20 -10 4 -12 4 -24 1 -27 -3 -4 -6 -2 -6 4 0 11
-39 11 -57 0 -7 -4 -16 0 -21 10 -9 15 -12 15 -27 3 -12 -10 -18 -11 -24 -2
-7 12 -28 11 -48 -1 -7 -5 -13 -5 -13 0 -1 4 -7 -7 -16 -26 -19 -44 -11 -57
110 -176 50 -49 138 -139 196 -200 135 -142 226 -209 457 -340 l189 -106 22
-92 c12 -51 29 -123 37 -161 19 -86 88 -217 138 -262 20 -19 41 -34 45 -34 4
0 14 16 21 36 11 29 15 33 28 23 12 -10 16 -10 24 2 17 26 30 89 38 188 9 93
22 141 40 141 4 0 57 -9 117 -19 60 -11 152 -25 204 -31 158 -18 538 -23 780
-10 266 14 257 14 389 5 103 -8 104 -8 99 13 -6 20 -2 21 78 24 l84 3 -31 38
c-17 21 -30 39 -28 41 2 2 42 15 89 30 137 44 328 114 408 151 78 36 102 41
130 26 9 -4 36 -11 60 -15 l43 -6 -7 35 c-12 64 -1 80 94 133 128 72 268 122
340 122 23 0 101 -35 249 -111 212 -110 218 -112 342 -135 165 -31 260 -30
413 2 68 14 124 27 126 28 1 2 -50 37 -115 79 -248 160 -462 337 -498 413 -16
34 -16 44 -1 168 9 72 25 219 36 327 11 119 25 212 35 235 9 22 21 65 26 97 9
52 7 62 -12 93 -12 19 -19 37 -17 39 2 3 22 8 44 13 l39 8 9 106 c9 110 6 140
-17 172 -12 17 -18 14 -75 -50z"/>
<path d="M5114 5218 c-169 -176 -420 -565 -587 -911 -81 -168 -97 -183 -185
-180 -57 1 -288 45 -299 57 -2 2 -7 29 -10 60 l-6 56 -26 -16 c-14 -9 -38 -28
-53 -42 l-27 -25 -128 36 c-188 53 -275 74 -403 96 -116 21 -268 64 -202 57
17 -1 32 1 32 5 0 4 -10 47 -22 96 -18 75 -22 118 -22 286 -1 108 -4 197 -8
197 -5 0 -8 5 -8 10 0 6 7 10 16 10 12 0 15 6 10 24 -3 13 -3 26 2 28 8 3 43
126 50 176 l4 34 -39 -20 c-167 -86 -254 -210 -423 -607 -40 -93 -76 -174 -80
-179 -12 -12 -81 -24 -190 -31 -238 -16 -543 -58 -690 -95 -156 -40 -415 -122
-523 -166 -320 -132 -719 -352 -795 -439 -40 -44 -40 -62 -1 -135 56 -106 170
-197 330 -263 30 -12 56 -26 57 -30 2 -4 10 -3 17 3 10 8 17 5 29 -12 18 -26
21 -42 6 -33 -14 8 -2 -85 12 -102 19 -24 79 -55 131 -69 38 -10 121 -14 305
-14 l254 0 -6 -27 c-34 -174 -32 -359 5 -428 21 -39 64 -73 76 -61 3 2 22 67
43 143 21 76 47 162 58 191 22 58 99 193 116 204 12 8 114 15 319 23 81 3 153
8 160 10 65 19 52 30 263 -223 289 -345 357 -413 532 -531 57 -39 156 -81 188
-81 17 0 -22 111 -78 225 -53 107 -189 315 -206 315 -7 0 -10 5 -7 10 7 12
-41 100 -54 100 -5 0 -8 10 -9 23 0 13 -16 66 -37 118 -28 73 -47 104 -81 138
-25 24 -44 44 -42 45 2 2 46 17 98 36 52 18 161 59 241 91 125 49 331 118 364
121 6 1 76 -11 157 -26 81 -15 166 -26 190 -24 l42 3 -74 54 c-41 30 -90 66
-109 80 l-35 25 60 26 c32 15 106 54 164 87 l105 59 40 -29 40 -29 10 53 c6
33 17 56 31 65 40 27 164 64 222 66 75 4 85 -5 159 -131 104 -177 140 -226
201 -273 33 -26 81 -56 108 -66 48 -19 194 -39 194 -27 0 3 -13 32 -29 64 -50
99 -137 311 -169 411 -40 126 -46 173 -28 240 61 240 159 585 179 630 30 69
46 135 44 180 -2 32 0 35 23 32 24 -3 26 1 52 111 17 74 24 125 20 146 l-7 33
-61 -64z"/>
<path d="M6558 5062 c-48 -31 -125 -135 -235 -317 -17 -29 -17 -28 -66 -160
-92 -248 -145 -480 -152 -656 -1 -47 -8 -96 -14 -108 -7 -12 -9 -26 -5 -32 3
-6 8 -36 10 -66 1 -30 8 -61 14 -68 25 -31 6 -47 -101 -85 -225 -79 -540 -282
-629 -406 -40 -55 -69 -105 -70 -118 0 -12 40 0 180 54 69 27 148 54 176 61
27 7 51 15 54 18 14 16 155 14 241 -4 40 -9 98 -16 130 -16 l56 -1 -4 -312
c-5 -383 -19 -501 -66 -560 -38 -47 -107 -157 -107 -170 0 -5 22 -6 48 -2 l49
6 -13 -72 c-7 -40 -24 -151 -39 -245 -26 -176 -87 -417 -165 -656 l-41 -127
-66 -50 c-92 -70 -168 -158 -292 -339 -75 -111 -88 -151 -48 -151 15 0 29 9
37 25 7 14 20 25 29 25 8 0 24 8 35 18 12 11 48 27 81 36 33 10 69 20 79 23
18 6 18 2 12 -68 -7 -72 -57 -365 -71 -421 -17 -66 8 -17 63 125 77 197 128
356 142 437 18 108 42 203 62 243 38 77 174 297 293 477 68 102 146 226 175
275 29 50 80 132 113 183 l60 93 33 -32 33 -32 5 24 c21 90 26 119 26 160 0
37 10 64 45 126 88 157 146 337 215 669 23 109 44 202 47 207 7 11 51 8 86 -6
50 -21 139 -125 190 -223 25 -49 46 -84 47 -79 0 6 -9 46 -20 91 -23 99 -79
230 -169 401 l-68 128 5 160 c9 261 6 367 -8 410 -8 22 -13 45 -12 51 1 6 -11
103 -28 215 -17 112 -37 251 -45 309 -14 100 -19 113 -107 289 -92 185 -146
261 -184 261 -10 0 -31 -8 -46 -18z"/>
<path d="M10620 2846 c0 -8 10 -54 21 -103 12 -48 21 -98 21 -110 -1 -13 2
-23 6 -23 4 0 7 -98 6 -217 -2 -168 -7 -239 -22 -311 -12 -60 -15 -91 -8 -88
82 33 24 -7 -80 -56 -44 -21 -160 -74 -259 -118 -99 -45 -211 -99 -249 -121
l-68 -41 -48 26 c-26 14 -50 23 -54 19 -3 -3 -6 -30 -6 -59 0 -45 -4 -56 -22
-68 -13 -8 -124 -36 -248 -61 -275 -57 -461 -71 -521 -39 -19 11 -108 100
-196 199 -374 420 -917 867 -1282 1054 -113 58 -121 57 -121 -9 0 -37 102
-292 119 -298 5 -2 32 1 60 6 28 5 52 8 54 5 2 -2 0 -28 -5 -58 -9 -51 -8 -58
21 -109 18 -30 50 -76 72 -103 57 -67 413 -785 413 -833 1 -112 -223 -477
-483 -785 -28 -33 -51 -63 -51 -66 0 -3 66 3 148 13 194 24 346 74 523 171
l130 72 223 226 c270 274 249 263 491 262 174 0 350 -23 390 -49 21 -14 25
-24 25 -70 l0 -54 53 26 c28 15 66 38 83 51 l32 24 133 -34 134 -33 -61 -41
c-55 -37 -104 -82 -79 -72 6 2 64 24 128 48 114 43 118 44 137 26 15 -13 34
-18 66 -16 24 1 48 -1 53 -4 5 -3 60 -7 122 -10 119 -5 144 -14 168 -58 15
-29 16 -27 -129 -217 -73 -96 -190 -303 -190 -337 0 -26 98 39 213 143 65 59
171 171 252 268 l140 167 61 -5 c88 -7 380 11 439 28 28 7 74 23 104 34 l55
21 66 -53 c71 -57 180 -165 180 -178 0 -4 7 -8 16 -8 8 0 12 -4 9 -10 -3 -5
14 -38 37 -73 64 -93 116 -203 179 -381 60 -170 61 -171 74 -51 5 46 1 86 -20
177 -32 143 -141 470 -195 586 -31 65 -37 88 -28 94 7 4 16 8 20 8 14 0 235
164 280 207 37 36 46 52 46 79 0 19 -4 31 -9 28 -5 -3 -9 -1 -9 4 0 11 67 72
78 72 4 0 23 25 41 55 19 31 40 59 48 63 23 13 54 144 51 214 -3 58 -5 64 -37
85 -80 54 -341 115 -541 128 -58 3 -154 13 -215 22 -82 11 -170 14 -343 12
l-233 -4 -58 170 c-118 343 -168 436 -279 515 -60 43 -72 48 -72 26z"/>
<path d="M5580 2369 c-236 -125 -572 -370 -796 -581 -55 -51 -130 -121 -167
-156 l-68 -62 -122 0 c-67 0 -194 9 -282 20 -88 11 -166 20 -173 20 -7 0 -20
9 -30 20 -14 17 -24 19 -59 14 -25 -4 -88 2 -160 14 -123 22 -197 31 -448 57
-82 9 -206 30 -275 47 -120 31 -124 32 -95 44 17 7 40 13 52 14 12 0 25 5 29
11 5 8 -21 10 -92 8 l-98 -4 -30 60 c-16 33 -33 84 -37 114 -4 30 -13 57 -19
61 -7 4 -8 10 -3 13 5 3 10 19 11 36 1 17 6 41 11 54 15 39 -2 46 -79 31 -130
-25 -195 -73 -280 -210 l-43 -70 -116 32 c-64 17 -134 38 -156 47 -100 37
-249 78 -340 93 -75 12 -198 17 -487 21 -360 4 -397 3 -520 -17 -207 -33 -458
-90 -511 -117 -43 -22 -48 -27 -43 -49 16 -61 231 -304 269 -304 8 0 54 -26
103 -58 49 -33 103 -66 121 -75 17 -9 34 -25 37 -34 7 -23 62 -51 211 -109
154 -59 424 -154 450 -158 42 -6 284 -88 293 -99 5 -7 12 -64 15 -127 7 -127
26 -239 63 -375 68 -244 124 -361 219 -460 l66 -70 -6 120 c-18 319 -19 373
-11 413 8 35 7 45 -5 53 -10 6 -11 9 -1 9 7 0 18 15 24 33 7 17 31 70 55 117
23 47 43 89 43 94 0 5 10 30 22 55 12 25 23 47 23 48 0 1 131 9 290 17 160 9
383 21 497 27 l208 12 69 -43 c76 -45 160 -75 242 -86 l51 -7 -7 44 c-4 24
-13 64 -21 88 -9 31 -10 50 -3 63 13 23 75 51 172 77 40 10 159 44 265 75 153
44 198 53 218 46 39 -15 53 -12 47 9 -4 14 3 21 29 29 68 22 256 53 354 59
l100 6 80 -64 c193 -157 247 -192 343 -230 135 -52 272 -79 402 -79 l106 0
-115 113 c-195 191 -301 338 -287 396 4 14 20 49 38 76 17 28 70 121 118 208
49 86 111 184 139 217 51 63 66 96 57 130 -5 18 0 20 39 20 l43 0 39 83 c34
72 44 127 23 127 -3 0 -49 -23 -101 -51z"/>
</g>
</svg>
