<?xml version="1.0" encoding="UTF-8"?>
<svg id="mask" xmlns="http://www.w3.org/2000/svg" viewBox="0 0 364.59 155.67">
  <defs>
    <style>
      .cls-1 {
        fill: none;
        stroke: #231f20;
        stroke-linecap: round;
        stroke-linejoin: round;
      }
    </style>
  </defs>
  <path class="cls-1" d="M177.77,43.02c.22-.15,.42-.34,.57-.56C197.54,15.09,209.32,2.5,213.67,4.68c2.05,1.03-.87,7.54,0,19.05,.6,8.01,2.71,14.57,4.58,19.14,.3,.73,.95,1.25,1.73,1.36,10.65,1.52,86.76,12.17,91.49,7.44,3.3-3.3,4.46-1.8,4.86-.35,.26,.93,1.02,1.62,1.98,1.69,3.4,.25,10.66,.66,12.37-.14,2.26-1.06,38.47-69.22,32.81-48.44s-19.24,67.74-10.18,84.72c9.05,16.97-18.1-14.14-15.84-15.84s-46.96,13.44-49.22,11.53-3.96,7.06,0,9.36-8.49,.52-12.45,0-35.08,15.88-46.39,17.58l-11.15,1.67c-.11,.02-.22,.02-.33,.02h-8.63c-1.55,0-2.62,1.55-2.07,3,3.04,8.01,12.69,29.73,30.1,36.6,21.5,8.49-32.25-11.32-42.43-17.54-10.18-6.22-20.37-8.49-23.2-12.45s-5.66,11.88-50.92,9.62-63.36-7.35-70.72-10.75-13.58-9.05-11.88-11.32h0c.86-1.15,.42-2.79-.9-3.36-9.88-4.25-44.15-19.67-35.37-25.49,10.24-6.79,45.31-16.41,48.14-16.41s57.71-10.75,66.76-11.88,49.61-2.85,55.44-6.79l5.49-3.71Z"/>
</svg>