<?xml version="1.0" encoding="UTF-8"?>
<svg id="mask" xmlns="http://www.w3.org/2000/svg" viewBox="0 0 394.1 142.6">
  <defs>
    <style>
      .cls-1 {
        fill: none;
        stroke: #231f20;
        stroke-linecap: round;
        stroke-linejoin: round;
      }
    </style>
  </defs>
  <path class="cls-1" d="M1.72,80.82s44.6-17.52,49.38-18.32,113.89-15.93,116.28-22.3,20.16-28.67,20.03-30.26,11.82-13.54,12.62-7.96-3.19,35.16,10.35,38.69,86.81,7.51,92.38,6.71,7.96-6.71,7.96-6.71c0,0-1.08,9.19,4.28,8.29s14.39,4.6,30.37-10.28S390.03-1.56,391.41,1.74s3.31,4.68,1.38,8.54-11.57,17.64-13.23,18.74-10.75,11.3-8.27,27.01,13.23,39.41,13.23,39.41c0,0,1.1,6.06-8.54,2.2s-32.52-22.32-33.35-24.8-57.87,15.43-60.63,14.33,5.51,7.72,1.38,7.44-12.4-1.65-14.33-1.38-69.45,30.04-73.03,28.11,1.81,6.89,8.9,12.68,13.7,7.17,7.08,7.99-18.19-4.41-27.01-9.09-11.57-7.72-24.25-5.51-41.06,1.38-61.45,1.38-45.17-1.85-50.2-4.73-13.64-10.05-12.93-12.21,.72-5.74,.72-5.74h-10.05S-6.16,93.94,1.72,80.82Z"/>
</svg>