<?xml version="1.0" encoding="UTF-8"?>
<svg id="mask" xmlns="http://www.w3.org/2000/svg" viewBox="0 0 382.39 151.89">
  <defs>
    <style>
      .cls-1 {
        fill: none;
        stroke: #231f20;
        stroke-linecap: round;
        stroke-linejoin: round;
      }
    </style>
  </defs>
  <path class="cls-1" d="M.57,72.27s35.52-15.69,57.6-18.57,104.64-16.32,110.4-14.4,20.16-28.8,20.16-28.8c0,0,9.97-14.4,11.7-8.64s0,30.9,0,30.9c0,0,2.95-.45,3.72,3.63s3.48,8.33,7.74,8.33,78.52,11.6,81.62,10.06,5.42-6.96,6.58-4.64-1.55,6.58,0,6.19,20.05,1.38,22.85-1.29,36.82-29.16,43.91-32.04,14.77-7.67,14.96-5.75,0,6.9,0,6.9c0,0-16.49,18.6-18.03,21.86s-9.97,15.15-6.33,30.87,10.74,27.23,9.59,29.92,.19,7.1-10.74,0-25.89-26.66-34.71-25.51-41.42,8.44-44.87,9.4,4.03,9.59,1.92,9.4-13.81-4.03-15.53-3.45-36.24,16.3-45.07,18.41-17.6,2.88-17.6,2.88c0,0,4.94,11.51,11.08,15.53s24.39,17.94,21.8,17.94-12.92-1.72-15.79-3.45-39.73-23.55-39.73-23.55c0,0-37.23,7.18-61.06,3.73s-63.17-9.76-66.9-12.06-16.65-11.2-14.64-13.5,3.16-4.02,3.16-4.02l-11.77-.29S-1.04,79.57,.57,72.27Z"/>
</svg>