<?xml version="1.0" encoding="UTF-8"?>
<svg id="mask" xmlns="http://www.w3.org/2000/svg" viewBox="0 0 381.86 149.43">
  <defs>
    <style>
      .cls-1 {
        fill: none;
        stroke: #231f20;
        stroke-linecap: round;
        stroke-linejoin: round;
      }
    </style>
  </defs>
  <path class="cls-1" d="M1.56,78.56l54.51-20.44s109.99-11.68,115.83-19.47,15.57-26.28,20.44-30.18,12.65-10.71,12.65-6.81,.31,41.14,8.56,41.14,92.5,8.25,95.73,5.02,6.1-6.81,6.1-5.02-2.51,8.25,2.87,7.17,14.7,2.78,26.17-10.44S378.85-1.3,380.28,2.29s1.43,5.38,0,10.04-10.76,15.78-12.55,25.46-5.02,24.74,3.94,48.05-16.13,1.79-16.13,1.79c0,0-10.04-16.49-18.64-14.34s-47.33,16.13-49.84,15.42,2.51,7.98,2.51,7.98c0,0-17.21-2.6-18.64-3.67s-26.53,17.21-42.31,21.15-28.33,7.53-32.27,7.53,1.43,12.91,6.45,17.57,10.76,9.68,7.53,9.68-44.1-16.85-46.25-20.08-40.16,5.02-60.59,.72-41.23-2.87-53.42-10.04-13.62-6.81-13.27-8.96,1.79-5.02,1.79-5.02l-11.83-.72S-5.71,92.09,1.56,78.56Z"/>
</svg>