<?xml version="1.0" encoding="UTF-8"?>
<svg id="mask" xmlns="http://www.w3.org/2000/svg" viewBox="0 0 398.6 151.17">
  <defs>
    <style>
      .cls-1 {
        fill: none;
        stroke: #231f20;
        stroke-linecap: round;
        stroke-linejoin: round;
      }
    </style>
  </defs>
  <path class="cls-1" d="M1.1,78.46s48.3-18.48,51.8-18.48,82.6-16.8,100.1-15.4,21.04-7.7,21.04-7.7l20.96-30.1s14.7-9.8,13.3-4.9-4.01,39.2,.09,42,107.01,16.8,107.01,16.8c0,0,8.23-6.57,8.76-5.78s-.53,8.17,0,8.17,19.49,2.9,22.92,0,48.46-50.31,50.83-44.78-20.28,40.04-19.23,55.31,6.06,38.72,7.38,41.62-9.22,0-9.22,0l-26.6-26.6s-58.74,11.06-61.9,12.12,3.69,8.69,3.69,8.69c0,0-16.84-2.39-19.48-4.59s-53.73,18.5-62.09,17.62,44.04,29.51,46.24,28.18-24.22-.44-44.48-12.77c-20.26-12.33-24.22-6.61-24.22-6.61,0,0-62.98,7.49-80.15,4.84l-17.18-2.64s-29.75-1.34-34.3-4.26-17.21-14.61-17.21-14.61l1.62-4.22-10.06-1.62S-4.5,89.41,1.1,78.46Z"/>
</svg>