<?xml version="1.0" encoding="UTF-8"?>
<svg id="mask" xmlns="http://www.w3.org/2000/svg" viewBox="0 0 363.48 164.89">
  <defs>
    <style>
      .cls-1 {
        fill: none;
        stroke: #231f20;
        stroke-linecap: round;
        stroke-linejoin: round;
      }
    </style>
  </defs>
  <path class="cls-1" d="M.5,74.71s33.76-15.36,44.78-17.2,113.84-22.03,120.26-18.36,14-22.03,21.69-27.54S206.31-.93,204.74,.75s-9.16,41.16,.15,42.07,91.93,12.85,92.85,14.69,8.23-6,8.23-6c0,0-1.58,6.97,0,6.97s18.05,6.97,26.29-7.28,30.72-40.86,30.72-34.21-13.62,35.16-13.62,46.88,4.43,38.96,5.07,41.18-5.38,5.07-12.04-3.17-9.19-20.27-15.2-19.64-52.58,9.82-52.58,9.82c0,0-.63,8.87,1.58,9.19s-17.74-4.43-17.74-4.43c0,0-31.67,13.94-38.33,15.52s-21.85,3.8-22.81,3.48,14.89,21.54,23.12,26.61,23.12,12.67,15.52,12.04-59.23-30.09-59.23-31.67-23.44,5.07-53.85,3.17-64.93-3.48-72.53-9.5-13.62-12.67-13.62-12.67l2.22-4.12-8.87-.32S7.97,89.35,.5,74.71Z"/>
</svg>