<?xml version="1.0" encoding="UTF-8"?>
<svg id="mask" xmlns="http://www.w3.org/2000/svg" viewBox="0 0 385.32 146.87">
  <defs>
    <style>
      .cls-1 {
        fill: none;
        stroke: #231f20;
        stroke-linecap: round;
        stroke-linejoin: round;
      }
    </style>
  </defs>
  <path class="cls-1" d="M1.25,80.14s43.28-17.31,51.06-19.04,93.47-19.04,98.67-19.04,11.6,2.17,18.42-8.63,14.78-24.02,17.62-25.37,10.8-12.15,11.37-5.33,0,22.17,0,22.17c0,0,0,13.21,8.53,15.41s93.21,14.71,96.06,12.44,7.39-7.39,7.39-7.39c0,0-2.27,7.96,3.41,7.96s8.53,8.09,31.26-13S384.82,3.16,384.82,8.07s-.99,10.83-.99,10.83l-13.03,17.94s-9.09,22.01-5.41,32.88,12.04,28.08,10.81,31.27-9.83,0-9.83,0c0,0-28.76-21.88-28.27-23.84s-60.46,14.01-63.17,13.03,5.9,3.93,3.69,5.41-15.73-.25-15.73-.25c0,0-62.18,24.09-67.1,22.12s-.7,2.38-.7,2.38c0,0,.96,1.51,3.58,5.92s9.36,12.25,12.25,13.76,10.19,5.64,7.85,6.47-8.95,.28-12.11-1.65-35.1-20.37-35.65-21.33-23.02,6.05-49.79,4.77-56.59-.25-65-3.82-20.65-11.47-20.39-13,2.04-4.84,2.04-4.84l-10.2-.25S-4.79,92.41,1.25,80.14Z"/>
</svg>