<?xml version="1.0" encoding="UTF-8"?>
<svg id="mask" xmlns="http://www.w3.org/2000/svg" viewBox="0 0 371.65 145.43">
  <defs>
    <style>
      .cls-1 {
        fill: none;
        stroke: #231f20;
        stroke-linecap: round;
        stroke-linejoin: round;
      }
    </style>
  </defs>
  <path class="cls-1" d="M1.07,71.03s46.29-14.73,54-16.13,102.39-11.22,108-15.43,18.23-30.16,22.44-31.56,19.36-10.52,16.69-6.31-5.29,24.97-3.25,29.45,2.65,8.97,3.57,10.19,88.18,13.86,91.86,10.6,6.93-4.49,6.93-4.49v6.52s13.05,6.12,28.95-8.97,39.15-37.11,40.78-33.44-14.68,22.02-17.53,34.66-2.04,26.51,1.22,39.56,3.26,15.9,3.26,15.9c0,0-33.03-22.02-33.44-26.1s-53.42,12.23-53.42,12.23c0,0,7.34,11.83,1.22,8.16s-15.09-2.04-23.65,1.22-30.18,13.86-35.48,14.68-20.39,3.67-20.39,3.67l6.93,13.46s25.28,14.68,20.39,15.9-26.51-9.38-26.51-9.38c0,0-24.88-15.09-26.1-15.09s-38.74,11.01-64.84,5.3-54.24-12.64-57.5-15.09-9.79-8.97-9.79-8.97l1.63-4.49h-11.42S-3.93,82.05,1.07,71.03Z"/>
</svg>