<?xml version="1.0" encoding="UTF-8"?>
<svg id="mask" xmlns="http://www.w3.org/2000/svg" viewBox="0 0 374.46 144.34">
  <defs>
    <style>
      .cls-1 {
        fill: none;
        stroke: #231f20;
        stroke-linecap: round;
        stroke-linejoin: round;
      }
    </style>
  </defs>
  <path class="cls-1" d="M.5,69.99s44.72-16.84,55.76-18.01,92.93-11.62,102.8-9.29,13.94-6.39,13.94-6.39l19.17-26.14s16.26-15.1,15.68-7.55-3.1,27.88-3.1,27.88c0,0,4.27,10.45,6.59,12.2s86.54,14.52,88.86,13.36,4.65-6.97,6.39-5.81,0,7.55,0,7.55c0,0,15.68,2.9,18.59,0s48.79-48.79,48.79-41.82v6.97s-22.07,32.53-19.75,41.82,2.9,34.27,6.97,38.33-11.04,6.97-24.97-12.2-58.08,1.16-58.08,1.16c0,0-.58,2.32,1.16,5.81s-11.04-.58-11.04-.58c0,0-26.72,13.36-47.05,17.42l-20.33,4.07s13.36,20.33,27.88,24.39-35.43-11.62-41.53-15.68-21.78,3.48-72.89-2.9-63.89-10.45-66.79-13.94-10.45-9.87-10.45-9.87l1.16-5.23s-24.39-1.16-37.75-25.56"/>
</svg>