<?xml version="1.0" encoding="UTF-8"?>
<svg id="Layer_1" data-name="Layer 1" xmlns="http://www.w3.org/2000/svg" viewBox="0 0 137.11 109.64">
  <defs>
    <style>
      .cls-1 {
        fill: none;
        stroke: #231f20;
        stroke-miterlimit: 10;
      }
    </style>
  </defs>
  <path class="cls-1" d="M106.21,86.42c2.48,1.63,4.14,4.23,4.62,7.16,.55,3.28,1.76,8.03,4.45,12.97,4.9,8.98,11.29-8.04,10.09-11.04s-3.43-1.07,4.67,1.46c4.67,1.46,6.21-5.03,6.52-7.82,.31-2.79-1.55-4.03-4.35-10.86-2.26-5.53-7.38-1.69-9.24-.03-.54,.48-1.17,.86-1.86,1.09-2.3,.76-3.6,.49-6.07-1.01-20.06-12.12-82.47-50.68-78.96-59.22,4.18-10.17-4.18-14.39-8.77-17.98-4.59-3.59-6.79,8.98-4.4,17.37,2.4,8.39-5.99,.6-15.02-4.19S-1.89,30.7,5.56,32.87c31.26,9.12,100.66,53.55,100.66,53.55Z"/>
</svg>