<?xml version="1.0" encoding="UTF-8"?>
<svg id="Layer_1" data-name="Layer 1" xmlns="http://www.w3.org/2000/svg" viewBox="0 0 118.66 115.63">
  <defs>
    <style>
      .cls-1 {
        fill: none;
        stroke: #231f20;
        stroke-miterlimit: 10;
      }
    </style>
  </defs>
  <path class="cls-1" d="M.58,59.04C12.28,31.08,13.59,15.47,27.24,10.27S59.61,.51,59.61,.51c0,0,33.97,7.15,35.27,10.41s15.61,19.51,14.31,22.76,11.71,16.91,8.45,22.11-11.83,17.3-11.39,19.49,1.32,14.06,3.08,15.82-11.43,8.79-12.3,8.35,0,8.35-2.2,9.23-5.27,0-5.27,0l-.29-6.22s.48,9.9-1.69,10.39-8.21,0-8.21,0l-.24-11.6s-.48,13.53-2.17,13.77-7.49,0-7.49,0l-.72-13.29s.48,12.08-1.93,12.08-7.43-.24-7.43-.24l-1.03-12.32s-.24,12.56-1.45,12.56h-7.01l-1.21-12.56s.97,12.8-.97,12.8-6.04-.48-6.04-.48l-1.69-12.8s.48,12.56-.72,12.56-7.01-.48-7.01-.48l-1.69-10.15s.72,8.7-.72,8.45-5.56-.48-5.8-2.9-1.69-8.21-1.69-8.21c0,0-7.97,.47-10.15-3.87s2.9-17.14,2.17-19.32S.58,59.04,.58,59.04Z"/>
  <path class="cls-1" d="M35.88,85.79s15.22-5.8,16.67-13.77,5.31-13.04-8.33-13.04-18.72,1.45-18.72,1.45c0,0-7.73,7.25-6.04,10.87s13.04,17.88,16.43,14.49Z"/>
  <path class="cls-1" d="M64.38,61.63s-1.21,8.7,0,9.42,11.11,13.77,14.98,14.25,7.49,.24,10.15-1.93,9.42-7.7,9.42-10.73-2.66-9.8-4.59-11.01-4.59-2.42-6.28-2.66-13.53-.72-16.43,0-6.99,.48-7.25,2.66Z"/>
  <path class="cls-1" d="M57.86,81.68v12.8l-3.69,4.11s-4.77-2.66-4.77-4.11,4.83-14.01,8.45-12.8Z"/>
  <path class="cls-1" d="M61.97,81.6v13.13s1.45,3.14,3.62,2.42,5.31-3.14,4.83-4.35-5.56-13.45-8.45-11.19Z"/>
</svg>