<?xml version="1.0" encoding="UTF-8"?>
<svg id="Layer_1" data-name="Layer 1" xmlns="http://www.w3.org/2000/svg" viewBox="0 0 61.56 34.15">
  <defs>
    <style>
      .cls-1 {
        fill: none;
        stroke: #231f20;
        stroke-miterlimit: 10;
      }
    </style>
  </defs>
  <path class="cls-1" d="M2.91,15.03C2.57,9.4-.71,.99,.98,.89s5.73,.62,6.61,4c.88,3.38,3.29,11.84,3.78,8.21s0-6.76,0-6.76h3.87v6.04s2.9,5.07,3.14,.97c.24-4.11,0-5.39,0-5.39l3.62-1.14v6.28s3.02,3.38,3.08-.48l.06-3.87,5.13-.8v5.87s2.36,5.56,2.6,.24,0-6.52,0-6.52h4.25v5.07s2.03,4.35,2.27,0l.24-4.35,3.87,.35v3.03s2.42,7.97,2.17,1.21l-.24-6.76h4.11v6.76s.67,3.38,2.75-2.17,11.26-15.22,8.12-7.01c-3.14,8.21-1.45,18.12-4.59,20.05s-16.43,10.39-22.95,9.9c-6.52-.48-18.36-2.66-20.78-5.8S3.27,20.71,2.91,15.03Z"/>
</svg>